<?xml version="1.0" encoding="UTF-8" standalone="no"?>
<svg
   viewBox="0 0 288 38"
   preserveAspectRatio="xMinYMid"
   version="1.1"
   id="svg4"
   sodipodi:docname="oracool_logo.svg"
   width="288"
   height="38"
   inkscape:version="1.2.2 (b0a8486, 2022-12-01)"
   xmlns:inkscape="http://www.inkscape.org/namespaces/inkscape"
   xmlns:sodipodi="http://sodipodi.sourceforge.net/DTD/sodipodi-0.dtd"
   xmlns="http://www.w3.org/2000/svg"
   xmlns:svg="http://www.w3.org/2000/svg">
  <defs
     id="defs8" />
  <sodipodi:namedview
     id="namedview6"
     pagecolor="#ffffff"
     bordercolor="#000000"
     borderopacity="0.25"
     inkscape:showpageshadow="2"
     inkscape:pageopacity="0.0"
     inkscape:pagecheckerboard="0"
     inkscape:deskcolor="#d1d1d1"
     showgrid="false"
     inkscape:zoom="2.0567683"
     inkscape:cx="127.1412"
     inkscape:cy="8.2653937"
     inkscape:window-width="1280"
     inkscape:window-height="690"
     inkscape:window-x="342"
     inkscape:window-y="1105"
     inkscape:window-maximized="0"
     inkscape:current-layer="layer3" />
  <g
     inkscape:groupmode="layer"
     id="layer3"
     inkscape:label="start">
    <path
       d="m 100.21482,19.348102 h 15.24 l -8.05,-12.9999995 -14.8,23.4799995 h -6.73 l 18,-28.1699995 c 1.69254,-2.42465797 5.27299,-2.45023264 7,-0.05 l 18.05,28.2199995 h -6.73 l -3.17,-5.25 h -15.42 l -3.36,-5.23 m -24.64,0.86 c 5.550465,0 10.049996,-4.499538 10.049996,-10.05 0,-5.5504611 -4.499531,-10.04999953 -10.049996,-10.04999953 h -25 V 29.828102 h 5.71 V 5.3681025 h 18.94 c 2.656491,0 4.809998,2.1535104 4.809998,4.8099995 0,2.65649 -2.153507,4.81 -4.809998,4.81 h -16.11 l 17.06,14.84 h 8.29 l -11.46,-9.62 h 2.57 m -60.12,9.62 h 17.27 c 8.0541,-0.208986 14.47454,-6.798194 14.47454,-14.855 0,-8.0568059 -6.42044,-14.64601351 -14.47454,-14.85499953 h -17.27 C 7.1297201,-0.09869382 0.23937329,6.6151977 0.23937329,14.973102 c 0,8.357905 6.89034681,15.071796 15.24544671,14.855 m 16.88,-5.23 h -16.5 c -5.189553,-0.167383 -9.309876,-4.422751 -9.309876,-9.615 0,-5.1922485 4.120323,-9.4476163 9.309876,-9.6149995 h 16.5 c 5.431698,-0.1751933 9.930116,4.1804818 9.930116,9.6149995 0,5.434518 -4.498418,9.790193 -9.930116,9.615 m 108.49,5.23 h 17.63 l 3.34,-5.23 h -20.58 c -5.4317,0.175193 -9.93012,-4.180482 -9.93012,-9.615 0,-5.4345177 4.49842,-9.7901928 9.93012,-9.6149995 h 16.75 l 3.38,-5.25000003 h -20.52 c -8.3551,-0.21679629 -15.24545,6.49709523 -15.24545,14.85499953 0,8.357905 6.89035,15.071796 15.24545,14.855"
       style="fill:#c74634"
       id="path2"
       sodipodi:nodetypes="cccccccccccccssccccssscccccccsccscccsccscccccsccccsc"
       inkscape:label="path2" />
  </g>
  <g
     inkscape:groupmode="layer"
     id="layer1"
     inkscape:label="middle"
     transform="translate(19.22964,-1.5231398)"
     style="fill:#000000">
    <path
       id="path1410"
       style="fill:#FFFFFF"
       inkscape:label="backLeft"
       d="m 155.09067,1.9000929 c -8.00017,0.2046085 -14.46679,6.7568034 -14.46679,14.8535161 0,7.959474 6.25043,14.422613 14.0625,14.833984 -0.75654,-1.752156 -1.18321,-3.679784 -1.20704,-5.707031 -3.81269,-1.286451 -6.54101,-4.890093 -6.54101,-9.115234 0,-5.192244 4.121,-9.447852 9.31055,-9.6152351 h 16.5 c 3.19452,-0.1030356 6.05721,1.3681599 7.88086,3.6972661 h 5.36132 c 0.13634,0.0035 0.27087,0.01431 0.40625,0.02148 -2.22835,-5.1581248 -7.29298,-8.8139763 -13.25781,-8.9687504 h -17.27148 c -0.2611,-0.00677 -0.51928,-0.0066 -0.77735,3e-7 z" />
    <path
       id="path1410-3"
       style="fill:#FFFFFF"
       inkscape:label="frontLeft"
       d="m 201.68638,1.2340773 c -6.29097,0.1608948 -11.63123,4.2463409 -13.62696,9.9218747 2.13766,0.366752 4.11507,1.190462 5.83399,2.363282 1.10006,-3.9535647 4.65539,-6.8966013 8.95117,-7.0351567 h 16.5 c 3.19452,-0.1030355 6.05721,1.3681623 7.88086,3.6972657 h 5.36133 c 0.13634,0.0035 0.27087,0.01431 0.40625,0.02148 -2.22835,-5.1581189 -7.29299,-8.8139758 -13.25782,-8.9687497 h -17.27148 c -0.2611,-0.00678 -0.51927,-0.0066 -0.77734,0 z m -1.40039,26.3046877 c -0.12869,1.102706 -0.37748,2.169334 -0.73438,3.185547 0.56707,0.09722 1.1438,0.166372 1.73047,0.197265 -0.46103,-1.06775 -0.79658,-2.201901 -0.99609,-3.382812 z" />
    <path
       d="m 168.72026,40.557984 h 17.27 c 8.0541,-0.208986 14.47454,-6.798194 14.47454,-14.855 0,-8.056807 -6.42044,-14.646014 -14.47454,-14.855 h -17.27 c -8.3551,-0.216796 -15.24545,6.497095 -15.24545,14.855 0,8.357905 6.89035,15.071796 15.24545,14.855 m 16.88,-5.23 h -16.5 c -5.18955,-0.167383 -9.30988,-4.422751 -9.30988,-9.615 0,-5.192249 4.12033,-9.447617 9.30988,-9.615 h 16.5 c 5.4317,-0.175193 9.93012,4.180481 9.93012,9.615 0,5.434518 -4.49842,9.790193 -9.93012,9.615"
       style="fill:#FFFFFF"
       id="path1410-9"
       inkscape:label="backRight"
       sodipodi:nodetypes="ccsccscccsccsc" />
    <path
       d="m 215.3159,39.891288 h 17.27 c 8.0541,-0.208986 14.47454,-6.798194 14.47454,-14.855 0,-8.056807 -6.42044,-14.646015 -14.47454,-14.855001 h -17.27 c -8.3551,-0.2167957 -15.24545,6.497096 -15.24545,14.855001 0,8.357905 6.89035,15.071796 15.24545,14.855 m 16.88,-5.23 h -16.5 c -5.18955,-0.167383 -9.30988,-4.422751 -9.30988,-9.615 0,-5.192249 4.12033,-9.447617 9.30988,-9.615 h 16.5 c 5.4317,-0.175193 9.93012,4.180481 9.93012,9.615 0,5.434518 -4.49842,9.790193 -9.93012,9.615"
       style="fill:#FFFFFF"
       id="path1410-9-4"
       inkscape:label="frontRight"
       sodipodi:nodetypes="ccsccscccsccsc" />
  </g>
  <g
     inkscape:groupmode="layer"
     id="layer2"
     inkscape:label="end">
    <path
       id="path1333"
       style="fill:#c74634"
       inkscape:label="L"
       d="m 254.87891,0.2734375 v 8.7597656 c 2.121,0.5038029 4.06301,1.4601979 5.7207,2.7617189 V 0.2734375 Z m 11.35547,24.5000005 c -0.16047,1.869479 -0.66745,3.640715 -1.45704,5.25 h 19.03125 l 3.39063,-5.25 z" />
  </g>
</svg>
